# xmcd
#
# Track frame offsets:
#  150
#  26744
#  50294
#
# Disc length: 1319 seconds
#
# Revision: 0
# Processed by: cddbd v1.4b41PL2 Copyright (c) Steve Scherf et al.
# Submitted via: AltoMP3 Maker 3.0
#
DISCID=1d052503
DTITLE=Flat Front Tire - Demo
DYEAR=1900
DGENRE=
TTITLE0=Busta Market
TTITLE1=Park It At The Post Office
TTITLE2=Slow Blues
EXTD=
EXTT0=
EXTT1=
EXTT2=
PLAYORDER=
